:SAMPLES-PER-SECOND 30
:FULLY-SPECIFIED
:DEGREES
916
root  -0.603991 33.2362 22.7213 10.9329 10.0889 85.0416
Spine  -4.42203 -1.81991 -0.926639
Spine1  -5.18372 7.01501 -8.56876
Neck  3.97569e-016 0 -2.38542e-015
Head  -28.4188 -14.2676 1.02146
R_Clavicle  0.251445 -14.1416 -0.162579
R_UpperArm  -5.09903 -4.87282 14.0052
R_Forearm  21.0905 -12.4558 10.5474
R_Hand  -1.25078 7.38109 -20.8392
L_Clavicle  -0.455289 16.0539 -2.01754
L_UpperArm  0.755027 1.69481 7.66926
L_Forearm  -9.01004 21.8809 27.8009
L_Hand  -0.0793918 6.46519 -0.55643
L_Thigh  4.22143 -11.4714 19.3778
L_Calf  -0.228095 0.980333 -7.40835
L_Foot  -1.12785 5.79302 -10.3152
L_Toe0  0.505156 0.034446 -6.1361
R_Thigh  1.87286 10.1789 -6.61943
R_Calf  -16.4002 4.02529 12.6374
R_Foot  1.6495 -16.1572 -24.8844
R_Toe0  -9.83885 4.14852 6.47081
917
root  -1.62511 33.8165 24.025 -5.24377 10.5639 84.3185
Spine  -3.32828 -1.56445 -1.19074
Spine1  -3.69519 2.00738 -9.99651
Neck  3.97569e-016 0 -2.38542e-015
Head  -26.5779 -14.3024 0.512173
R_Clavicle  0.215704 -12.1613 -0.101962
R_UpperArm  -4.05809 -6.09795 10.6444
R_Forearm  16.523 -5.58295 4.63129
R_Hand  -0.584635 6.84066 -15.2642
L_Clavicle  -0.452109 15.9893 -2.49763
L_UpperArm  1.04668 1.97623 16.5745
L_Forearm  -6.38998 26.8287 34.2522
L_Hand  -0.0198768 6.19673 -0.00166491
L_Thigh  2.14594 -11.1875 15.3851
L_Calf  3.43894 -0.243598 1.66023
L_Foot  -1.78056 3.3403 -11.4872
L_Toe0  0.505156 0.034446 -6.1361
R_Thigh  9.88664 5.90622 -4.9982
R_Calf  -12.3458 2.65383 8.26053
R_Foot  2.79904 -7.15298 -27.8518
R_Toe0  -16.1782 4.31008 -3.09787
918
root  -2.86051 33.9312 25.3476 -22.7152 10.7409 82.6467
Spine  -1.6745 -2.11992 -2.13494
Spine1  -1.54283 -1.78747 -10.0507
Neck  3.97569e-016 0 -2.38542e-015
Head  -23.4834 -12.6007 -0.634027
R_Clavicle  0.228533 -11.1715 0.219131
R_UpperArm  -4.4365 -4.76004 7.1004
R_Forearm  13.7691 2.39923 -2.02177
R_Hand  -0.030178 6.16327 -10.0743
L_Clavicle  -0.482359 16.5329 -2.86504
L_UpperArm  -4.56648 2.87256 25.7575
L_Forearm  0.63599 33.7602 37.4162
L_Hand  0.0638212 5.19217 0.834171
L_Thigh  -0.17689 -11.014 11.4865
L_Calf  8.86267 -1.29161 9.51919
L_Foot  -2.6335 -2.0914 -11.8306
L_Toe0  0.505156 0.034446 -6.1361
R_Thigh  14.429 2.56121 -3.50397
R_Calf  -6.74333 0.351767 1.06375
R_Foot  2.47722 -1.77345 -23.7643
R_Toe0  -6.02822 0.0165068 -13.6521
919
root  -4.28166 33.711 26.5942 -40.2959 9.81734 80.9471
Spine  0.154017 -1.88074 -3.33121
Spine1  0.556579 -5.25314 -10.1505
Neck  3.97569e-016 0 -2.38542e-015
Head  -19.079 -9.38984 -1.02226
R_Clavicle  0.277817 -11.3282 0.689675
R_UpperArm  -5.29232 -2.05418 2.95514
R_Forearm  12.3034 10.012 -8.46136
R_Hand  0.28901 5.93214 -7.0443
L_Clavicle  -0.548217 17.6434 -3.14686
L_UpperArm  -9.92103 4.92196 35.6683
L_Forearm  7.68481 39.6338 39.6311
L_Hand  0.213716 4.58077 2.58925
L_Thigh  -1.16381 -11.0822 8.16122
L_Calf  13.0917 -2.16189 16.1926
L_Foot  -3.16466 -5.01747 -12.3935
L_Toe0  0.428332 0.0388788 -6.20447
R_Thigh  15.3162 0.938464 -1.85577
R_Calf  -5.2233 -2.4922 -7.78832
R_Foot  2.25023 1.13582 -19.2309
R_Toe0  -1.35622 -0.326857 -17.7177
920
root  -5.87476 33.0978 27.7087 -57.1684 7.533 79.305
Spine  1.79352 -0.894487 -3.59813
Spine1  2.26117 -8.37823 -10.889
Neck  3.97569e-016 0 -2.38542e-015
Head  -13.2531 -5.31362 -0.760844
R_Clavicle  0.342466 -10.4471 1.40652
R_UpperArm  -4.22649 0.218961 -3.17671
R_Forearm  11.3728 16.2137 -14.0075
R_Hand  0.582521 6.17611 -4.76885
L_Clavicle  -0.598776 18.4159 -3.3911
L_UpperArm  -11.9202 9.30331 45.4266
L_Forearm  13.655 43.5231 42.7282
L_Hand  0.325089 5.33593 3.57731
L_Thigh  -1.72916 -11.2997 5.10812
L_Calf  12.5107 -2.52852 19.1097
L_Foot  -2.18069 -2.454 -9.07643
L_Toe0  1.22274 -0.00780713 -5.49732
R_Thigh  15.1284 0.0900212 -0.924645
R_Calf  -5.34333 -5.59011 -17.6955
R_Foot  2.16109 2.15477 -16.8391
R_Toe0  -1.78853 -0.272788 -17.3235
921
root  -7.61409 32.1394 28.6908 -72.6808 4.18452 76.9894
Spine  2.94222 -1.48931 -3.23656
Spine1  3.35537 -9.85823 -10.6543
Neck  3.97569e-016 0 -2.38542e-015
Head  -6.17078 -1.18834 -1.21061
R_Clavicle  0.489804 -8.22066 2.68904
R_UpperArm  -1.20862 2.39293 -11.3311
R_Forearm  10.5054 20.2302 -17.8552
R_Hand  0.86672 5.92727 -1.99044
L_Clavicle  -0.637967 19.1221 -3.2466
L_UpperArm  -13.5131 15.0448 52.7558
L_Forearm  22.6866 46.9767 48.4758
L_Hand  0.353002 5.77525 3.73748
L_Thigh  -7.44036 -12.0974 2.27056
L_Calf  7.68585 -2.24973 17.1147
L_Foot  0.711517 3.08214 -0.298536
L_Toe0  3.58893 -0.13539 -3.39176
R_Thigh  14.7373 -2.00513 -1.5592
R_Calf  -3.19598 -8.50083 -27.6298
R_Foot  1.99751 1.79457 -15.57
R_Toe0  -1.78853 -0.272788 -17.3235
922
root  -9.34998 31.2535 29.5282 -85.0044 0.476986 74.653
Spine  3.44014 -3.44672 -3.94364
Spine1  3.61569 -9.7047 -8.09967
Neck  3.97569e-016 0 -2.38542e-015
Head  0.676235 2.09788 -2.76787
R_Clavicle  0.672007 -7.16049 3.98642
R_UpperArm  1.67271 4.30732 -17.9447
R_Forearm  9.47765 21.6589 -19.2901
R_Hand  1.00209 4.90231 0.913804
L_Clavicle  -0.687967 20.433 -2.54686
L_UpperArm  -13.6714 19.4333 55.4938
L_Forearm  33.7827 49.1419 55.8137
L_Hand  0.471357 4.56181 5.43082
L_Thigh  -16.5641 -13.7564 0.395828
L_Calf  3.08458 -1.79038 13.7612
L_Foot  4.07959 6.97174 8.8822
L_Toe0  1.20041 0.0255713 -5.52047
R_Thigh  15.015 -5.38449 -3.61938
R_Calf  0.576018 -10.332 -34.4282
R_Foot  1.80655 1.25332 -14.4383
R_Toe0  -1.78853 -0.272788 -17.3235
923
root  -10.8083 30.964 30.284 -93.0629 -1.92871 74.0086
Spine  3.63745 -3.34962 -5.8507
Spine1  3.52774 -10.2029 -4.92463
Neck  3.97569e-016 0 -2.38542e-015
Head  4.97882 3.72929 -4.08894
R_Clavicle  0.695489 -8.36865 4.33852
R_UpperArm  3.14994 4.21319 -18.3476
R_Forearm  8.05765 21.0136 -18.6367
R_Hand  1.12377 4.19512 3.51628
L_Clavicle  -0.714402 21.6527 -1.80851
L_UpperArm  -15.3308 20.7395 53.7155
L_Forearm  46.8911 49.9236 60.3566
L_Hand  0.630371 3.32143 8.22765
L_Thigh  -22.784 -15.2517 0.632025
L_Calf  -0.719271 -1.61274 12.3826
L_Foot  5.76608 9.42797 11.8715
L_Toe0  0.37679 0.0384896 -6.24982
R_Thigh  16.8312 -7.2829 -6.35751
R_Calf  1.30408 -10.3247 -34.4077
R_Foot  1.58665 0.0525044 -14.1474
R_Toe0  -1.78853 -0.272788 -17.3235
924
root  -11.8428 31.3008 31.1212 -98.2862 -2.14897 75.6966
Spine  4.091 0.323323 -7.15582
Spine1  3.81697 -12.2949 -3.88018
Neck  3.97569e-016 0 -2.38542e-015
Head  6.18996 3.5587 -3.84088
R_Clavicle  0.589367 -10.574 3.73282
R_UpperArm  2.91831 1.795 -12.114
R_Forearm  6.8336 18.3826 -16.0535
R_Hand  1.31443 4.53488 4.62133
L_Clavicle  -0.699197 21.799 -1.39282
L_UpperArm  -17.0424 19.4344 49.5103
L_Forearm  52.6861 49.3103 58.633
L_Hand  0.621423 2.60595 8.80329
L_Thigh  -25.5587 -14.7224 3.1644
L_Calf  -5.29709 -1.72169 13.0328
L_Foot  5.20543 11.4849 7.8152
L_Toe0  0.936077 0.0179737 -5.75462
R_Thigh  18.9355 -5.18378 -9.19808
R_Calf  -2.41602 -8.3446 -27.0758
R_Foot  1.44252 -1.21264 -14.6704
R_Toe0  -1.78853 -0.272788 -17.3235
925
root  -12.5642 31.87 32.1517 -102.179 -0.848256 78.4689
Spine  4.80533 4.56665 -7.11886
Spine1  4.51593 -13.66 -5.0931
Neck  3.97569e-016 0 -2.38542e-015
Head  5.98133 2.52638 -2.5152
R_Clavicle  0.470084 -12.7375 2.70061
R_UpperArm  0.34035 -0.95119 -2.93882
R_Forearm  8.19063 12.7898 -10.8983
R_Hand  1.30124 5.6493 2.26572
L_Clavicle  -0.642103 20.9618 -0.937512
L_UpperArm  -17.5792 17.2485 44.2613
L_Forearm  43.4768 47.6021 52.6245
L_Hand  0.348567 1.18721 5.98505
L_Thigh  -25.9086 -12.5298 7.22569
L_Calf  -9.19184 -1.8727 13.9943
L_Foot  3.31721 12.9555 0.505232
L_Toe0  3.26163 -0.0984852 -3.69716
R_Thigh  19.5322 -0.282605 -11.9218
R_Calf  -6.5896 -4.78959 -15.0809
R_Foot  1.66841 0.198641 -14.6903
R_Toe0  -1.69517 -0.281143 -17.4075
926
root  -13.1839 32.3505 33.2759 -104.524 0.42019 80.4367
Spine  4.94194 5.82486 -6.48333
Spine1  4.69814 -12.191 -6.50747
Neck  3.97569e-016 0 -2.38542e-015
Head  5.91872 1.74558 -1.69219
R_Clavicle  0.37416 -14.2639 1.48583
R_UpperArm  -4.38233 -2.10332 5.15408
R_Forearm  13.3467 3.85152 -3.23315
R_Hand  0.856703 6.98943 -3.4874
L_Clavicle  -0.563674 19.365 -0.39054
L_UpperArm  -17.9289 15.6352 38.5856
L_Forearm  24.112 44.41 46.5967
L_Hand  0.108834 0.973234 1.82187
L_Thigh  -21.3197 -11.6068 11.5887
L_Calf  -8.75034 -1.8161 13.4032
L_Foot  1.21142 13.4946 -6.60691
L_Toe0  3.7608 -0.160851 -3.25735
R_Thigh  19.025 4.0309 -15.2989
R_Calf  -7.64886 -0.408167 -1.28648
R_Foot  2.07595 3.23942 -13.7801
R_Toe0  -2.45803 -0.267748 -16.8609
927
root  -13.8575 32.5121 34.3261 -105.385 0.640647 81.1737
Spine  4.10158 4.9572 -5.79782
Spine1  3.84552 -9.5418 -6.77798
Neck  3.97569e-016 0 -2.38542e-015
Head  6.16844 1.56469 -1.85359
R_Clavicle  0.293716 -14.6636 0.289061
R_UpperArm  -11.0125 -1.97825 9.97066
R_Forearm  20.558 -7.50698 6.4977
R_Hand  0.105163 8.38806 -10.6701
L_Clavicle  -0.483982 16.8906 -0.477714
L_UpperArm  -16.988 14.6379 33.6364
L_Forearm  3.44125 38.5059 41.5343
L_Hand  -0.0325288 2.92263 -0.26931
L_Thigh  -11.3527 -13.381 15.5439
L_Calf  -3.8345 -1.22554 8.80624
L_Foot  -0.0109513 12.745 -10.1367
L_Toe0  1.3838 0.0189981 -5.35654
R_Thigh  18.1834 6.3754 -19.8009
R_Calf  -6.34523 3.77565 11.8109
R_Foot  1.85204 3.25203 -11.1242
R_Toe0  -7.41072 0.727413 -11.2455
928
root  -14.6698 32.1366 35.2868 -106.925 0.0704195 81.7506
Spine  3.44825 5.35648 -4.89823
Spine1  3.00562 -8.56784 -6.13147
Neck  3.97569e-016 0 -2.38542e-015
Head  6.72972 1.425 -2.80701
R_Clavicle  0.235079 -14.2144 -0.397965
R_UpperArm  -16.4526 -1.15914 12.1472
R_Forearm  26.227 -20.347 15.8668
R_Hand  -0.743028 10.2031 -17.4587
L_Clavicle  -0.394769 14.6094 -1.28786
L_UpperArm  -14.1596 12.0494 30.2192
L_Forearm  -12.0107 30.204 36.9138
L_Hand  -0.0682806 4.55752 -0.613155
L_Thigh  -2.96108 -15.355 19.1591
L_Calf  -0.037355 0.183631 -1.68833
L_Foot  0.889265 12.2466 -6.90351
L_Toe0  0.413395 0.0369728 -6.21744
R_Thigh  16.1418 7.65305 -24.0438
R_Calf  -4.26107 6.52761 20.8183
R_Foot  0.196955 -1.07639 -4.40696
R_Toe0  -10.798 2.91155 -0.95509
929
root  -15.588 31.381 36.2646 -110.783 -0.414355 83.1041
Spine  4.0076 7.93024 -3.85271
Spine1  3.1853 -9.08615 -4.78897
Neck  3.97569e-016 0 -2.38542e-015
Head  8.0734 0.582749 -5.25357
R_Clavicle  0.256517 -14.4888 -0.193564
R_UpperArm  -0.927066 1.14202 15.1808
R_Forearm  16.9583 -36.5139 19.9514
R_Hand  -1.52973 12.2944 -22.5507
L_Clavicle  -0.396748 14.6658 -1.48866
L_UpperArm  -16.0286 5.08861 27.2095
L_Forearm  -15.8085 24.4283 32.1028
L_Hand  -0.201134 4.77964 -2.02465
L_Thigh  -0.341066 -14.7754 22.2913
L_Calf  -1.72529 2.1083 -15.964
L_Foot  2.65751 12.1404 -0.980693
L_Toe0  0.505156 0.034446 -6.1361
R_Thigh  12.7561 8.6704 -25.8944
R_Calf  -1.87421 7.38042 23.7496
R_Foot  -2.78146 -5.95339 6.1894
R_Toe0  -3.5032 1.12307 -0.435823
